<?xml version="1.0" standalone="no"?>
<!DOCTYPE svg PUBLIC "-//W3C//DTD SVG 20010904//EN"
 "http://www.w3.org/TR/2001/REC-SVG-20010904/DTD/svg10.dtd">
<svg version="1.0" xmlns="http://www.w3.org/2000/svg"
 width="254.000000pt" height="251.000000pt" viewBox="0 0 254.000000 251.000000"
 preserveAspectRatio="xMidYMid meet">

<g transform="translate(0.000000,251.000000) scale(0.100000,-0.100000)"
fill="#000000" stroke="none">
<path d="M0 1255 l0 -1255 1270 0 1270 0 0 1255 0 1255 -1270 0 -1270 0 0
-1255z m1369 945 c41 -6 104 -17 140 -26 72 -18 218 -71 225 -82 6 -10 -132
-166 -152 -173 -9 -3 -34 0 -55 7 -64 22 -105 27 -257 26 -134 0 -161 -2 -230
-16 -105 -21 -98 -24 -183 68 l-78 84 80 31 c202 78 350 101 510 81z m664 -88
c53 -58 54 -403 2 -583 -12 -44 -11 -50 16 -115 77 -182 138 -402 139 -500 0
-110 -126 -301 -280 -425 -90 -72 -282 -170 -395 -201 -118 -31 -353 -32 -480
0 -106 27 -268 102 -358 166 -136 97 -254 245 -309 386 -25 64 -23 77 19 99
21 11 34 20 30 21 -4 0 -21 -7 -37 -15 l-30 -16 0 39 c0 48 68 291 115 414 19
49 35 100 35 112 0 13 -9 58 -21 102 -39 152 -34 413 9 488 24 41 59 44 122
10 62 -34 186 -147 247 -226 51 -67 44 -66 168 -28 138 43 381 38 523 -11 30
-10 62 -19 71 -19 9 0 39 32 66 72 64 90 161 179 238 218 70 35 88 37 110 12z
m-1661 -534 c-7 -7 -12 -8 -12 -2 0 14 12 26 19 19 2 -3 -1 -11 -7 -17z m1843
-129 c8 -30 17 -83 20 -119 4 -63 4 -64 -6 -20 -6 25 -15 50 -19 55 -5 6 -5
17 0 25 5 9 5 19 -2 28 -14 16 -29 107 -16 94 5 -5 15 -33 23 -63z m-1898 -51
c-3 -7 -5 -2 -5 12 0 14 2 19 5 13 2 -7 2 -19 0 -25z m-10 -65 c-3 -10 -5 -2
-5 17 0 19 2 27 5 18 2 -10 2 -26 0 -35z m-10 -140 c-2 -21 -4 -6 -4 32 0 39
2 55 4 38 2 -18 2 -50 0 -70z"/>
<path d="M1920 2014 c-59 -40 -213 -207 -199 -218 135 -99 203 -152 224 -177
14 -17 28 -30 30 -27 2 2 12 47 21 98 20 118 15 243 -13 297 -23 45 -31 48
-63 27z"/>
<path d="M551 1984 c-42 -53 -49 -177 -20 -334 16 -87 15 -86 67 -35 26 26 82
72 125 102 42 30 77 59 77 65 0 23 -159 192 -202 214 -25 13 -28 12 -47 -12z"/>
<path d="M1745 1259 c-22 -12 -51 -29 -65 -39 -14 -9 -56 -31 -95 -49 -137
-61 -139 -63 -100 -110 24 -28 32 -31 83 -31 128 0 285 118 267 200 -4 17 -15
35 -25 40 -24 13 -19 14 -65 -11z"/>
<path d="M718 1253 c-27 -32 -29 -42 -14 -71 39 -75 161 -148 253 -151 47 -2
56 1 90 34 l38 36 -24 16 c-13 10 -60 33 -105 53 -45 19 -107 50 -139 68 -65
37 -78 39 -99 15z"/>
<path d="M1183 1053 c9 -2 23 -2 30 0 6 3 -1 5 -18 5 -16 0 -22 -2 -12 -5z"/>
<path d="M1358 1053 c7 -3 16 -2 19 1 4 3 -2 6 -13 5 -11 0 -14 -3 -6 -6z"/>
<path d="M538 983 c12 -2 30 -2 40 0 9 3 -1 5 -23 4 -22 0 -30 -2 -17 -4z"/>
<path d="M1938 983 c7 -3 16 -2 19 1 4 3 -2 6 -13 5 -11 0 -14 -3 -6 -6z"/>
<path d="M478 973 c6 -2 18 -2 25 0 6 3 1 5 -13 5 -14 0 -19 -2 -12 -5z"/>
<path d="M608 973 c7 -3 16 -2 19 1 4 3 -2 6 -13 5 -11 0 -14 -3 -6 -6z"/>
<path d="M979 963 c-13 -16 -12 -17 4 -4 9 7 17 15 17 17 0 8 -8 3 -21 -13z"/>
<path d="M660 956 c0 -2 23 -21 51 -41 28 -20 48 -32 45 -26 -8 12 -96 74 -96
67z"/>
<path d="M1199 931 c-62 -20 -69 -29 -69 -82 0 -65 21 -104 70 -129 50 -25 56
-37 34 -62 -61 -66 -151 -62 -195 9 -22 35 -35 35 -48 -1 -18 -45 42 -112 110
-122 33 -6 38 -10 44 -41 11 -61 26 -82 71 -99 49 -19 102 -14 141 11 23 16
32 31 49 89 7 23 18 32 44 39 68 17 123 94 99 139 -11 21 -29 24 -29 5 0 -23
-56 -68 -92 -73 -38 -7 -81 10 -112 44 -22 25 -16 35 36 68 68 43 91 139 43
184 -20 19 -38 24 -97 26 -40 2 -85 0 -99 -5z m191 -410 c0 -87 -64 -135 -149
-111 -53 15 -72 33 -82 80 -17 77 -13 80 117 80 l114 0 0 -49z"/>
<path d="M1809 903 c-13 -16 -12 -17 4 -4 16 13 21 21 13 21 -2 0 -10 -8 -17
-17z"/>
<path d="M915 879 c-4 -6 -5 -12 -2 -15 2 -3 7 2 10 11 7 17 1 20 -8 4z"/>
<path d="M1759 863 l-24 -28 28 24 c15 14 27 26 27 28 0 8 -8 1 -31 -24z"/>
<path d="M785 860 c10 -11 20 -20 23 -20 3 0 -3 9 -13 20 -10 11 -20 20 -23
20 -3 0 3 -9 13 -20z"/>
<path d="M830 827 c0 -2 15 -16 33 -33 l32 -29 -29 33 c-28 30 -36 37 -36 29z"/>
<path d="M1669 783 l-24 -28 28 24 c25 23 32 31 24 31 -2 0 -14 -12 -28 -27z"/>
</g>
</svg>
